grf
version=1
nRows=47
nColumns=19
inDegrees=yes
endheader
time	ground_force_1_vx	ground_force_1_vy	ground_force_1_vz	ground_force_1_px	ground_force_1_py	ground_force_1_pz	ground_moment_1_mx	ground_moment_1_my	ground_moment_1_mz	ground_force_2_vx	ground_force_2_vy	ground_force_2_vz	ground_force_2_px	ground_force_2_py	ground_force_2_pz	ground_moment_2_mx	ground_moment_2_my	ground_moment_2_mz
0.000000	27.278858	1457.476562	-402.783752	0.141778	0.000000	-0.784102	0.000000	12.507481	0.000000	2.696177	1319.610840	319.253601	0.162479	0.000000	-1.567768	0.000000	-11.665816	-0.000000
0.001000	26.918179	1453.816162	-404.072083	0.140893	0.000000	-0.783339	0.000000	12.802867	0.000000	2.175340	1337.778076	320.342163	0.162714	0.000000	-1.567417	0.000000	-11.647543	-0.000000
0.002000	27.282282	1451.730713	-404.192566	0.140781	0.000000	-0.783655	0.000000	12.791099	0.000000	1.730704	1326.139160	319.296539	0.162413	0.000000	-1.568134	0.000000	-11.948301	0.000000
0.003000	27.208258	1446.612061	-404.107544	0.140783	0.000000	-0.783035	0.000000	12.304084	0.000000	1.247554	1325.804688	319.136658	0.161664	0.000000	-1.568925	0.000000	-12.322669	-0.000000
0.004000	26.843775	1447.742310	-404.144684	0.140352	0.000000	-0.782856	0.000000	12.419538	0.000000	0.682545	1343.358643	319.739044	0.162317	0.000000	-1.568310	0.000000	-12.286222	-0.000000
0.005000	26.156189	1443.601562	-403.778503	0.138988	0.000000	-0.782185	0.000000	12.884029	0.000000	1.126077	1333.939697	320.344086	0.162427	0.000000	-1.566550	0.000000	-12.318711	-0.000000
0.006000	28.181358	1441.662476	-402.411499	0.140119	0.000000	-0.782264	-0.000000	12.026774	0.000000	-0.200931	1334.274170	319.177307	0.163076	0.000000	-1.567438	0.000000	-11.972239	-0.000000
0.007000	28.834404	1455.927856	-404.217773	0.140000	0.000000	-0.784309	0.000000	11.627736	0.000000	3.624377	1335.713379	319.982544	0.163553	0.000000	-1.567907	0.000000	-11.453850	-0.000000
0.008000	28.591413	1450.959961	-405.632690	0.140303	0.000000	-0.783427	0.000000	11.822109	0.000000	0.199671	1342.569092	319.902222	0.164116	0.000000	-1.567879	0.000000	-11.952722	-0.000000
0.009000	30.850443	1460.744019	-404.091858	0.140183	0.000000	-0.784530	0.000000	11.312011	0.000000	-1.890026	1340.829956	320.747284	0.164009	0.000000	-1.566506	0.000000	-11.846782	-0.000000
0.010000	28.312365	1464.251465	-403.767517	0.140873	0.000000	-0.785587	0.000000	10.906931	0.000000	0.039402	1336.862305	322.236572	0.164699	0.000000	-1.569617	0.000000	-11.959652	-0.000000
0.011000	29.610083	1452.594482	-403.685303	0.139029	0.000000	-0.784924	-0.000000	11.221772	0.000000	0.037471	1351.666748	320.910339	0.164111	0.000000	-1.568818	0.000000	-12.399173	0.000000
0.012000	29.736143	1451.813232	-402.915588	0.138589	0.000000	-0.784140	-0.000000	10.930152	0.000000	-1.007516	1349.760010	321.794312	0.164903	0.000000	-1.566397	0.000000	-12.012567	-0.000000
0.013000	30.385004	1457.100464	-401.944641	0.138793	0.000000	-0.784446	0.000000	10.454073	0.000000	1.447441	1342.733398	322.719666	0.164664	0.000000	-1.567890	0.000000	-12.008758	-0.000000
0.014000	30.588129	1449.723511	-402.102478	0.138623	0.000000	-0.784427	0.000000	10.328058	0.000000	-1.291468	1347.833374	324.889465	0.164729	0.000000	-1.568247	-0.000000	-12.348734	-0.000000
0.015000	31.158403	1459.845947	-403.029297	0.138445	0.000000	-0.784404	0.000000	10.214836	0.000000	-0.282928	1352.946655	323.645050	0.165152	0.000000	-1.568768	0.000000	-12.018870	-0.000000
0.016000	30.514107	1451.843262	-403.748779	0.138245	0.000000	-0.783900	0.000000	10.067603	0.000000	-1.612695	1351.504272	324.651062	0.164940	0.000000	-1.568242	0.000000	-12.467186	-0.000000
0.017000	32.776939	1466.432129	-403.144897	0.138315	0.000000	-0.785559	0.000000	9.825344	0.000000	-1.169715	1344.184448	324.892334	0.165817	0.000000	-1.569205	0.000000	-12.130186	-0.000000
0.018000	32.133022	1460.840820	-402.254944	0.137310	0.000000	-0.785476	0.000000	9.974950	0.000000	-1.934749	1352.148071	325.095032	0.165313	0.000000	-1.568250	0.000000	-12.542898	-0.000000
0.019000	30.544460	1468.536865	-403.219360	0.137401	0.000000	-0.785862	-0.000000	10.622425	0.000000	-0.928278	1354.067383	326.222076	0.165454	0.000000	-1.569083	0.000000	-12.528314	-0.000000
0.020000	35.324528	1469.667847	-401.122375	0.137487	0.000000	-0.785481	0.000000	9.328147	0.000000	-1.732655	1357.571777	326.825012	0.166248	0.000000	-1.568747	0.000000	-12.256413	-0.000000
0.021000	33.758789	1467.755127	-400.995300	0.137094	0.000000	-0.786347	0.000000	8.985957	0.000000	-4.432911	1359.494629	328.914490	0.166566	0.000000	-1.569025	0.000000	-12.702640	-0.000000
0.022000	34.813522	1478.860596	-400.668152	0.136233	0.000000	-0.785839	0.000000	8.802114	0.000000	-3.787009	1349.291748	328.635925	0.167102	0.000000	-1.569168	0.000000	-12.510001	-0.000000
0.023000	34.851864	1476.753052	-402.118530	0.136574	0.000000	-0.787194	0.000000	8.898473	0.000000	-3.262447	1363.168823	329.078522	0.166345	0.000000	-1.570969	0.000000	-12.608506	-0.000000
0.024000	35.021969	1467.972046	-403.764374	0.135508	0.000000	-0.786560	0.000000	8.796196	0.000000	-3.423405	1358.860352	329.321167	0.167488	0.000000	-1.568986	0.000000	-12.367514	-0.000000
0.025000	36.155289	1475.184814	-400.027161	0.135715	0.000000	-0.786244	0.000000	8.631058	-0.000000	-2.738712	1367.470825	330.407288	0.168220	0.000000	-1.569805	0.000000	-12.090805	-0.000000
0.026000	37.167873	1476.797974	-400.820129	0.135194	0.000000	-0.787759	0.000000	8.216058	-0.000000	-3.865557	1357.907104	331.734924	0.167871	0.000000	-1.570061	0.000000	-12.375690	-0.000000
0.027000	37.290512	1470.379761	-402.392456	0.135179	0.000000	-0.787801	0.000000	8.306634	0.000000	-2.817260	1360.464355	332.218414	0.168446	0.000000	-1.570278	0.000000	-11.993334	-0.000000
0.028000	37.373283	1479.867920	-400.977783	0.134362	0.000000	-0.789009	0.000000	8.297044	0.000000	-5.031055	1372.260498	333.466248	0.168641	0.000000	-1.570453	0.000000	-12.264428	-0.000000
0.029000	39.275436	1468.074707	-400.208313	0.132564	0.000000	-0.788492	0.000000	8.452589	0.000000	-5.073847	1369.550171	334.794067	0.168898	0.000000	-1.571135	0.000000	-12.595969	-0.000000
0.030000	39.199890	1478.310791	-399.962402	0.133260	0.000000	-0.788270	0.000000	7.758457	0.000000	-4.430566	1368.591431	335.397095	0.168871	0.000000	-1.570124	0.000000	-12.636030	-0.000000
0.031000	40.452423	1483.931885	-399.516632	0.133176	0.000000	-0.788644	0.000000	7.540118	0.000000	-5.556859	1376.887695	336.001526	0.169936	0.000000	-1.571329	0.000000	-12.423310	-0.000000
0.032000	41.868595	1488.910034	-400.042267	0.133044	0.000000	-0.789077	0.000000	7.500748	0.000000	-5.999149	1369.406982	337.811890	0.170496	0.000000	-1.571241	0.000000	-12.343310	-0.000000
0.033000	41.991230	1488.604614	-397.375671	0.132777	0.000000	-0.789563	0.000000	7.046611	0.000000	-5.192979	1373.715698	336.768555	0.170687	0.000000	-1.571233	0.000000	-12.248293	-0.000000
0.034000	42.560364	1487.682007	-397.046417	0.131694	0.000000	-0.788823	0.000000	6.928585	0.000000	-6.844387	1382.161011	339.341980	0.170823	0.000000	-1.571270	0.000000	-12.529143	-0.000000
0.035000	43.448792	1484.642090	-396.321594	0.131131	0.000000	-0.789502	0.000000	7.072103	0.000000	-8.172912	1378.337891	341.031036	0.170695	0.000000	-1.572093	0.000000	-12.779762	-0.000000
0.036000	44.258247	1492.342163	-396.680237	0.131228	0.000000	-0.790785	0.000000	6.817003	0.000000	-7.932302	1380.419922	341.836365	0.171454	0.000000	-1.572608	0.000000	-12.728597	-0.000000
0.037000	45.194908	1486.616577	-396.677673	0.129831	0.000000	-0.789380	0.000000	6.796392	0.000000	-8.415039	1397.007324	342.238892	0.173175	0.000000	-1.571741	0.000000	-12.191972	-0.000000
0.038000	46.162682	1476.105469	-395.265564	0.127673	0.000000	-0.789656	0.000000	7.456486	0.000000	-9.381477	1378.197266	345.016327	0.171996	0.000000	-1.572627	0.000000	-13.058996	-0.000000
0.039000	47.579239	1498.646118	-394.978790	0.130071	0.000000	-0.791288	0.000000	6.125391	0.000000	-10.426326	1383.781250	345.416962	0.172391	0.000000	-1.572977	0.000000	-12.696831	-0.000000
0.040000	47.622902	1497.569336	-394.530640	0.128854	0.000000	-0.790941	0.000000	6.206405	0.000000	-10.427843	1391.107422	346.984375	0.172537	0.000000	-1.572828	0.000000	-12.783208	-0.000000
0.041000	48.834431	1495.969238	-393.645874	0.129151	0.000000	-0.790773	0.000000	5.983359	-0.000000	-11.271976	1392.237427	348.152618	0.173340	0.000000	-1.573316	0.000000	-12.669730	-0.000000
0.042000	51.023239	1501.767456	-393.274780	0.127959	0.000000	-0.792367	0.000000	5.642740	0.000000	-13.162752	1387.139526	347.832825	0.173535	0.000000	-1.573522	0.000000	-12.814979	-0.000000
0.043000	50.296936	1495.552856	-393.795288	0.126956	0.000000	-0.791272	0.000000	5.918546	0.000000	-13.162752	1398.773071	349.040375	0.174070	0.000000	-1.573287	0.000000	-12.763203	-0.000000
0.044000	53.000938	1509.822754	-393.588623	0.127030	0.000000	-0.793307	0.000000	5.632137	0.000000	-13.687038	1388.255859	349.684326	0.173965	0.000000	-1.573667	0.000000	-13.035233	-0.000000
0.045000	53.295963	1505.198242	-391.973816	0.126650	0.000000	-0.792374	0.000000	4.921080	0.000000	-14.611376	1399.256104	350.448517	0.174563	0.000000	-1.573516	0.000000	-12.771176	-0.000000
0.046000	56.858803	1514.984131	-393.136719	0.126436	0.000000	-0.793086	0.000000	4.261767	0.000000	-15.095078	1393.518311	351.817352	0.174441	0.000000	-1.574146	0.000000	-13.126123	-0.000000
